<svg width="0" height="0" class="hidden">
  <symbol fill="none" xmlns="http://www.w3.org/2000/svg" viewBox="0 0 22 22" id="search">
    <path fill-rule="evenodd" clip-rule="evenodd" d="M10.2754 2.46436C5.96107 2.46436 2.46448 5.96095 2.46448 10.2753C2.46448 14.5897 5.96107 18.0863 10.2754 18.0863C14.5889 18.0863 18.0864 14.5896 18.0864 10.2753C18.0864 5.961 14.5889 2.46436 10.2754 2.46436ZM0.964478 10.2753C0.964478 5.13252 5.13264 0.964355 10.2754 0.964355C15.4172 0.964355 19.5864 5.13247 19.5864 10.2753C19.5864 15.4181 15.4172 19.5863 10.2754 19.5863C5.13264 19.5863 0.964478 15.4181 0.964478 10.2753Z" fill="#9E9FB1"></path>
    <path fill-rule="evenodd" clip-rule="evenodd" d="M18.899 18.2377C18.5338 18.2377 18.2375 18.5346 18.2375 18.8981C18.2375 19.2636 18.5338 19.5596 18.899 19.5596C19.2635 19.5596 19.5595 19.2643 19.5595 18.8981C19.5595 18.5339 19.2635 18.2377 18.899 18.2377ZM16.7375 18.8981C16.7375 17.7055 17.706 16.7377 18.899 16.7377C20.0926 16.7377 21.0595 17.7062 21.0595 18.8981C21.0595 20.092 20.0926 21.0596 18.899 21.0596C17.706 21.0596 16.7375 20.0927 16.7375 18.8981Z" fill="#9E9FB1"></path>
  </symbol>
  <symbol fill="none" xmlns="http://www.w3.org/2000/svg" viewBox="0 0 24 24" id="buy">
    <path d="M13.02 10.892H15.793C16.207 10.892 16.543 10.556 16.543 10.142C16.543 9.72803 16.207 9.39203 15.793 9.39203H13.02C12.605 9.39203 12.27 9.72803 12.27 10.142C12.27 10.556 12.605 10.892 13.02 10.892Z" fill="#8B5CF6"></path>
    <path fill-rule="evenodd" clip-rule="evenodd" d="M12.3318 17.8023C12.5808 17.8093 12.8358 17.8133 13.0978 17.8133C15.0608 17.8133 17.3148 17.5823 18.8778 16.3673C20.5978 15.0303 21.7528 11.8943 21.4518 9.37534C21.2518 7.69834 20.4158 6.44834 19.0988 5.85534C18.1458 5.42534 17.1168 5.45834 16.2108 5.48934L16.2018 5.48964C16.0269 5.49554 15.8539 5.50137 15.6828 5.50334C14.6048 5.51734 13.5258 5.55034 12.4468 5.58834C10.4218 5.6602 8.39777 5.75597 6.37274 5.85178L6.36084 5.85234L6.31684 5.85434C6.31784 5.70234 6.31684 5.55234 6.31384 5.40534C6.36784 3.35334 4.58184 2.54234 3.62984 2.40034C3.22584 2.33634 2.83884 2.62134 2.77684 3.03134C2.71684 3.44134 2.99884 3.82234 3.40884 3.88334C3.46784 3.89234 4.84784 4.11334 4.81384 5.40334C4.83484 6.27134 4.76084 7.25034 4.68184 8.28634L4.68172 8.28802C4.45275 11.3076 4.19326 14.7296 6.45384 16.3393C8.15084 17.5483 10.4868 17.7563 12.3318 17.8023ZM6.18563 8.2984C6.20999 7.97954 6.23396 7.66572 6.25384 7.35934L6.43284 7.35134C8.45484 7.25534 10.4778 7.15934 12.4998 7.08734C13.5668 7.04934 14.6358 7.01734 15.7018 7.00334C15.8819 7.0004 16.0639 6.99459 16.2478 6.98872L16.2598 6.98834L16.2781 6.98778C17.0864 6.96297 17.8516 6.93948 18.4828 7.22334C19.3258 7.60234 19.8228 8.38634 19.9628 9.55234C20.1988 11.5383 19.2628 14.1693 17.9578 15.1823C16.5458 16.2803 14.0948 16.3493 12.3698 16.3033C10.7378 16.2623 8.69084 16.0903 7.32484 15.1183C5.75284 13.9983 5.96884 11.1523 6.17784 8.40034L6.18563 8.2984Z" fill="#8B5CF6"></path>
    <path d="M5.98816 20.3129C5.98816 21.0269 6.56916 21.6079 7.28416 21.6079C7.99816 21.6079 8.57816 21.0269 8.57816 20.3129C8.57816 19.5999 7.99816 19.0189 7.28416 19.0189C6.56916 19.0189 5.98816 19.5999 5.98816 20.3129Z" fill="#8B5CF6"></path>
    <path d="M16.3203 20.3129C16.3203 21.0269 16.9013 21.6079 17.6153 21.6079C18.3293 21.6079 18.9103 21.0269 18.9103 20.3129C18.9103 19.5999 18.3293 19.0189 17.6153 19.0189C16.9013 19.0189 16.3203 19.5999 16.3203 20.3129Z" fill="#8B5CF6"></path>
  </symbol>
  <symbol fill="none" xmlns="http://www.w3.org/2000/svg" viewBox="0 0 24 24" id="heart">
    <path d="M17.6314 10.6995H17.6564C18.0584 10.6995 18.3914 10.3805 18.4054 9.97451C18.4644 8.22951 17.4234 6.94651 15.8154 6.78151C15.4114 6.74751 15.0354 7.03851 14.9924 7.45051C14.9504 7.86251 15.2504 8.23051 15.6624 8.27351C16.4734 8.35651 16.9384 8.97351 16.9064 9.92451C16.8924 10.3385 17.2174 10.6855 17.6314 10.6995Z" fill="#8B5CF6"></path>
    <path fill-rule="evenodd" clip-rule="evenodd" d="M2.15932 12.639C3.95332 18.223 9.94632 21.236 12.0023 21.236C14.0733 21.236 20.0863 18.222 21.8423 12.638C22.9923 9.04603 21.7173 4.35803 17.6513 3.04803C15.9193 2.49303 13.5463 2.69703 11.9803 4.29003C10.5293 2.89603 8.37332 2.39303 6.34232 3.04903C2.28032 4.35603 1.00732 9.04503 2.15832 12.638L2.15932 12.639ZM12.0023 19.736C10.8173 19.736 5.23432 17.306 3.58732 12.181C2.65632 9.27303 3.62032 5.50103 6.80232 4.47603C8.19332 4.02703 10.2253 4.27903 11.3943 5.89303C11.5393 6.09203 11.7713 6.19203 12.0183 6.20203C12.2643 6.19703 12.4923 6.07103 12.6283 5.86603C13.6943 4.24803 15.7423 4.01203 17.1923 4.47603C20.3773 5.50203 21.3433 9.27403 20.4123 12.184C18.8013 17.307 13.1963 19.736 12.0023 19.736Z" fill="#8B5CF6"></path>
  </symbol>
  <symbol fill="none" xmlns="http://www.w3.org/2000/svg" viewBox="0 0 24 24" id="profile">
    <path fill-rule="evenodd" clip-rule="evenodd" d="M11.9617 11.8921H11.9927C14.8247 11.8921 17.1287 9.58814 17.1287 6.75614C17.1287 3.92414 14.8247 1.61914 11.9927 1.61914C9.15975 1.61914 6.85575 3.92414 6.85575 6.75314C6.85075 8.12214 7.37975 9.41014 8.34375 10.3811C9.30675 11.3511 10.5917 11.8881 11.9617 11.8921ZM8.35575 6.75614C8.35575 4.75114 9.98775 3.11914 11.9927 3.11914C13.9977 3.11914 15.6287 4.75114 15.6287 6.75614C15.6287 8.76114 13.9977 10.3921 11.9927 10.3921H11.9647C10.9967 10.3901 10.0897 10.0101 9.40775 9.32314C8.72575 8.63714 8.35275 7.72614 8.35575 6.75614Z" fill="#8B5CF6"></path>
    <path fill-rule="evenodd" clip-rule="evenodd" d="M4.40552 18.7561C4.40552 22.3811 10.1215 22.3811 11.9995 22.3811C13.8775 22.3811 19.5945 22.3811 19.5945 18.7341C19.5945 15.9411 16.1165 13.5811 11.9995 13.5811C7.88352 13.5811 4.40552 15.9511 4.40552 18.7561ZM5.90552 18.7561C5.90552 17.0211 8.51152 15.0811 11.9995 15.0811C15.4885 15.0811 18.0945 17.0101 18.0945 18.7341C18.0945 20.1581 16.0435 20.8811 11.9995 20.8811C7.95652 20.8811 5.90552 20.1661 5.90552 18.7561Z" fill="#8B5CF6"></path>
  </symbol>
    <symbol fill="none" xmlns="http://www.w3.org/2000/svg" viewBox="0 0 14 11" id="price">
    <path d="M12.5 0.75H1.5C0.947715 0.75 0.5 1.19772 0.5 1.75V9.25C0.5 9.80229 0.947715 10.25 1.5 10.25H12.5C13.0523 10.25 13.5 9.80229 13.5 9.25V1.75C13.5 1.19772 13.0523 0.75 12.5 0.75Z" stroke="#8B5CF6" stroke-linecap="round" stroke-linejoin="round"></path>
    <path d="M0.5 4.25H13.5" stroke="#8B5CF6" stroke-linecap="round" stroke-linejoin="round"></path>
    <path d="M9.5 7.75H11" stroke="#8B5CF6" stroke-linecap="round" stroke-linejoin="round"></path>
  </symbol>
  <symbol fill="none" xmlns="http://www.w3.org/2000/svg" viewBox="0 0 14 14" id="support">
    <g clip-path="url(#clip0_1236_885)">
      <path d="M3 7.00002V4.37002C3.00781 3.85305 3.11755 3.34271 3.32294 2.86822C3.52832 2.39374 3.82532 1.96445 4.1969 1.60494C4.56848 1.24544 5.00735 0.962785 5.48836 0.773182C5.96936 0.58358 6.48306 0.490753 7 0.500021V0.500021C7.51694 0.490753 8.03064 0.58358 8.51164 0.773182C8.99265 0.962785 9.43152 1.24544 9.8031 1.60494C10.1747 1.96445 10.4717 2.39374 10.6771 2.86822C10.8824 3.34271 10.9922 3.85305 11 4.37002V7.00002" stroke="#8B5CF6" stroke-linecap="round" stroke-linejoin="round"></path>
      <path d="M1.5 5.5H2.5C2.63261 5.5 2.75979 5.55268 2.85355 5.64645C2.94732 5.74021 3 5.86739 3 6V9C3 9.13261 2.94732 9.25979 2.85355 9.35355C2.75979 9.44732 2.63261 9.5 2.5 9.5H1.5C1.23478 9.5 0.98043 9.39464 0.792893 9.20711C0.605357 9.01957 0.5 8.76522 0.5 8.5V6.5C0.5 6.23478 0.605357 5.98043 0.792893 5.79289C0.98043 5.60536 1.23478 5.5 1.5 5.5V5.5Z" stroke="#8B5CF6" stroke-linecap="round" stroke-linejoin="round"></path>
      <path d="M12.5 9.5H11.5C11.3674 9.5 11.2402 9.44732 11.1464 9.35355C11.0527 9.25979 11 9.13261 11 9V6C11 5.86739 11.0527 5.74021 11.1464 5.64645C11.2402 5.55268 11.3674 5.5 11.5 5.5H12.5C12.7652 5.5 13.0196 5.60536 13.2071 5.79289C13.3946 5.98043 13.5 6.23478 13.5 6.5V8.5C13.5 8.76522 13.3946 9.01957 13.2071 9.20711C13.0196 9.39464 12.7652 9.5 12.5 9.5V9.5Z" stroke="#8B5CF6" stroke-linecap="round" stroke-linejoin="round"></path>
      <path d="M9 12.25C9.53043 12.25 10.0391 12.0393 10.4142 11.6642C10.7893 11.2891 11 10.7804 11 10.25V8" stroke="#8B5CF6" stroke-linecap="round" stroke-linejoin="round"></path>
      <path d="M9 12.25C9 12.5815 8.8683 12.8995 8.63388 13.1339C8.39946 13.3683 8.08152 13.5 7.75 13.5H6.25C5.91848 13.5 5.60054 13.3683 5.36612 13.1339C5.1317 12.8995 5 12.5815 5 12.25C5 11.9185 5.1317 11.6005 5.36612 11.3661C5.60054 11.1317 5.91848 11 6.25 11H7.75C8.08152 11 8.39946 11.1317 8.63388 11.3661C8.8683 11.6005 9 11.9185 9 12.25Z" stroke="#8B5CF6" stroke-linecap="round" stroke-linejoin="round"></path>
    </g>
    <defs>
      <clipPath id="clip0_1236_885">
        <rect width="14" height="14" fill="white"></rect>
      </clipPath>
    </defs>
  </symbol>
  <symbol fill="none" xmlns="http://www.w3.org/2000/svg" viewBox="0 0 14 14" id="favorite">
    <g clip-path="url(#clip0_1236_2404)">
      <path d="M6.87 9.5C9.35528 9.5 11.37 7.48528 11.37 5C11.37 2.51472 9.35528 0.5 6.87 0.5C4.38471 0.5 2.37 2.51472 2.37 5C2.37 7.48528 4.38471 9.5 6.87 9.5Z" stroke="#8B5CF6" stroke-linecap="round" stroke-linejoin="round"></path>
      <path d="M6.87 7C7.97456 7 8.87 6.10457 8.87 5C8.87 3.89543 7.97456 3 6.87 3C5.76543 3 4.87 3.89543 4.87 5C4.87 6.10457 5.76543 7 6.87 7Z" stroke="#8B5CF6" stroke-linecap="round" stroke-linejoin="round"></path>
      <path d="M6 9.42L5.12 13.12C5.10259 13.1903 5.07039 13.2561 5.02556 13.313C4.98073 13.3699 4.92429 13.4166 4.86 13.45C4.79215 13.4795 4.71897 13.4946 4.645 13.4946C4.57103 13.4946 4.49785 13.4795 4.43 13.45L1.11 12C1.04036 11.9671 0.979086 11.9188 0.930772 11.8588C0.882457 11.7988 0.848359 11.7287 0.831038 11.6536C0.813718 11.5786 0.813624 11.5005 0.830764 11.4254C0.847904 11.3503 0.881832 11.2801 0.930002 11.22L3.5 8" stroke="#8B5CF6" stroke-linecap="round" stroke-linejoin="round"></path>
      <path d="M8 9.37006L8.9 13.1201C8.9179 13.1916 8.95138 13.2582 8.99806 13.3153C9.04474 13.3723 9.10345 13.4184 9.17 13.4501C9.23599 13.4799 9.30758 13.4953 9.38 13.4953C9.45242 13.4953 9.52401 13.4799 9.59 13.4501L12.89 12.0001C12.9607 11.9675 13.0228 11.919 13.0714 11.8582C13.12 11.7974 13.1538 11.7262 13.17 11.6501C13.189 11.5756 13.1898 11.4977 13.1724 11.4229C13.155 11.3481 13.1199 11.2785 13.07 11.2201L10.39 7.81006" stroke="#8B5CF6" stroke-linecap="round" stroke-linejoin="round"></path>
    </g>
    <defs>
      <clipPath id="clip0_1236_2404">
        <rect width="14" height="14" fill="white"></rect>
      </clipPath>
    </defs>
  </symbol>
  <symbol fill="none" xmlns="http://www.w3.org/2000/svg" viewBox="0 0 25 25" id="fast-delivery">
    <path d="M19.2156 10.7156L19.771 10.2116C19.6288 10.0549 19.4271 9.96559 19.2156 9.96559V10.7156ZM22.7156 14.5727H23.4656C23.4656 14.3864 23.3962 14.2067 23.271 14.0687L22.7156 14.5727ZM22.7156 18.7156L22.7157 19.4656C23.1299 19.4655 23.4656 19.1298 23.4656 18.7156H22.7156ZM20.6303 18.7159L19.9231 18.9657V18.9657L20.6303 18.7159ZM17.8008 18.7159L18.508 18.9657V18.9657L17.8008 18.7159ZM15.7156 10.7156V9.96559C15.3014 9.96559 14.9656 10.3014 14.9656 10.7156H15.7156ZM1.71558 5.96559C1.30136 5.96559 0.965576 6.30138 0.965576 6.71559C0.965576 7.1298 1.30136 7.46559 1.71558 7.46559V5.96559ZM15.7156 6.71559H16.4656C16.4656 6.30138 16.1298 5.96559 15.7156 5.96559V6.71559ZM4.71578 17.9656C4.30156 17.9655 3.96569 18.3012 3.96558 18.7154C3.96546 19.1296 4.30116 19.4655 4.71537 19.4656L4.71578 17.9656ZM5.21558 13.4656C5.62979 13.4656 5.96558 13.1298 5.96558 12.7156C5.96558 12.3014 5.62979 11.9656 5.21558 11.9656V13.4656ZM3.71558 11.9656C3.30136 11.9656 2.96558 12.3014 2.96558 12.7156C2.96558 13.1298 3.30136 13.4656 3.71558 13.4656V11.9656ZM5.21558 16.4656C5.62979 16.4656 5.96558 16.1298 5.96558 15.7156C5.96558 15.3014 5.62979 14.9656 5.21558 14.9656V16.4656ZM4.71558 14.9656C4.30136 14.9656 3.96558 15.3014 3.96558 15.7156C3.96558 16.1298 4.30136 16.4656 4.71558 16.4656V14.9656ZM5.21558 10.4656C5.62979 10.4656 5.96558 10.1298 5.96558 9.71559C5.96558 9.30138 5.62979 8.96559 5.21558 8.96559V10.4656ZM2.71558 8.96559C2.30136 8.96559 1.96558 9.30138 1.96558 9.71559C1.96558 10.1298 2.30136 10.4656 2.71558 10.4656V8.96559ZM18.6602 11.2196L22.1602 15.0767L23.271 14.0687L19.771 10.2116L18.6602 11.2196ZM21.9656 14.5727V18.7156H23.4656V14.5727H21.9656ZM22.7155 17.9656L20.6302 17.9659L20.6304 19.4659L22.7157 19.4656L22.7155 17.9656ZM21.3375 18.4661C21.0291 17.593 20.1966 16.9656 19.2156 16.9656V18.4656C19.541 18.4656 19.8199 18.6733 19.9231 18.9657L21.3375 18.4661ZM19.2156 16.9656C18.2346 16.9656 17.402 17.593 17.0936 18.4661L18.508 18.9657C18.6113 18.6733 18.8901 18.4656 19.2156 18.4656V16.9656ZM17.8009 17.9659L15.7157 17.9656L15.7155 19.4656L17.8007 19.4659L17.8009 17.9659ZM16.4656 18.7156V10.7156H14.9656V18.7156H16.4656ZM15.7156 11.4656H19.2156V9.96559H15.7156V11.4656ZM1.71558 7.46559H15.7156V5.96559H1.71558V7.46559ZM14.9656 6.71559V18.7156H16.4656V6.71559H14.9656ZM15.7155 17.9656L8.6303 17.9659L8.63036 19.4659L15.7156 19.4656L15.7155 17.9656ZM9.33751 18.4661C9.02911 17.593 8.19658 16.9656 7.21558 16.9656V18.4656C7.54101 18.4656 7.81987 18.6733 7.92314 18.9657L9.33751 18.4661ZM7.21558 16.9656C6.23458 16.9656 5.40204 17.593 5.09364 18.4661L6.50801 18.9657C6.61128 18.6733 6.89014 18.4656 7.21558 18.4656V16.9656ZM5.80103 17.9659L4.71578 17.9656L4.71537 19.4656L5.80062 19.4659L5.80103 17.9659ZM19.2156 18.4656C19.6298 18.4656 19.9656 18.8014 19.9656 19.2156H21.4656C21.4656 17.973 20.4582 16.9656 19.2156 16.9656V18.4656ZM19.9656 19.2156C19.9656 19.6298 19.6298 19.9656 19.2156 19.9656V21.4656C20.4582 21.4656 21.4656 20.4582 21.4656 19.2156H19.9656ZM19.2156 19.9656C18.8014 19.9656 18.4656 19.6298 18.4656 19.2156H16.9656C16.9656 20.4582 17.9729 21.4656 19.2156 21.4656V19.9656ZM18.4656 19.2156C18.4656 18.8014 18.8014 18.4656 19.2156 18.4656V16.9656C17.9729 16.9656 16.9656 17.973 16.9656 19.2156H18.4656ZM7.21558 18.4656C7.62979 18.4656 7.96558 18.8014 7.96558 19.2156H9.46558C9.46558 17.973 8.45822 16.9656 7.21558 16.9656V18.4656ZM7.96558 19.2156C7.96558 19.6298 7.62979 19.9656 7.21558 19.9656V21.4656C8.45822 21.4656 9.46558 20.4582 9.46558 19.2156H7.96558ZM7.21558 19.9656C6.80136 19.9656 6.46558 19.6298 6.46558 19.2156H4.96558C4.96558 20.4582 5.97294 21.4656 7.21558 21.4656V19.9656ZM6.46558 19.2156C6.46558 18.8014 6.80136 18.4656 7.21558 18.4656V16.9656C5.97294 16.9656 4.96558 17.973 4.96558 19.2156H6.46558ZM5.21558 11.9656H3.71558V13.4656H5.21558V11.9656ZM5.21558 14.9656H4.71558V16.4656H5.21558V14.9656ZM5.21558 8.96559H2.71558V10.4656H5.21558V8.96559ZM17.0936 18.4661C17.0105 18.7015 16.9656 18.9541 16.9656 19.2156H18.4656C18.4656 19.1266 18.4807 19.0429 18.508 18.9657L17.0936 18.4661ZM21.4656 19.2156C21.4656 18.9541 21.4207 18.7015 21.3375 18.4661L19.9231 18.9657C19.9504 19.0429 19.9656 19.1266 19.9656 19.2156H21.4656ZM5.09364 18.4661C5.01049 18.7015 4.96558 18.9541 4.96558 19.2156H6.46558C6.46558 19.1266 6.48074 19.0429 6.50801 18.9657L5.09364 18.4661ZM9.46558 19.2156C9.46558 18.9541 9.42066 18.7015 9.33751 18.4661L7.92314 18.9657C7.95041 19.0429 7.96558 19.1266 7.96558 19.2156H9.46558Z" fill="#8B5CF6"></path>
  </symbol>
  <symbol fill="none" xmlns="http://www.w3.org/2000/svg" viewBox="0 0 14 15" id="offer">
    <path d="M9 8C11.4853 8 13.5 7.10457 13.5 6C13.5 4.89543 11.4853 4 9 4C6.51472 4 4.5 4.89543 4.5 6C4.5 7.10457 6.51472 8 9 8Z" stroke="#8B5CF6" stroke-linecap="round" stroke-linejoin="round"></path>
    <path d="M4.5 6V12C4.5 13.1 6.5 14 9 14C11.5 14 13.5 13.1 13.5 12V6" stroke="#8B5CF6" stroke-linecap="round" stroke-linejoin="round"></path>
    <path d="M13.5 9C13.5 10.1 11.5 11 9 11C6.5 11 4.5 10.1 4.5 9" stroke="#8B5CF6" stroke-linecap="round" stroke-linejoin="round"></path>
    <path d="M8.9 1.99999C7.73149 1.27886 6.37133 0.930103 5 0.999987C2.51 0.999987 0.5 1.89999 0.5 2.99999C0.5 3.58999 1.08 4.11999 2 4.49999" stroke="#8B5CF6" stroke-linecap="round" stroke-linejoin="round"></path>
    <path d="M2 10.5C1.08 10.12 0.5 9.59 0.5 9V3" stroke="#8B5CF6" stroke-linecap="round" stroke-linejoin="round"></path>
    <path d="M2 7.5C1.08 7.12 0.5 6.59 0.5 6" stroke="#8B5CF6" stroke-linecap="round" stroke-linejoin="round"></path>
  </symbol>
  <symbol fill="none" xmlns="http://www.w3.org/2000/svg" viewBox="0 0 24 24" id="category">
    <path fill-rule="evenodd" clip-rule="evenodd" d="M5.30396 5.30408C4.08098 6.52705 3.5 8.57322 3.5 12.0001C3.5 15.427 4.08098 17.4732 5.30396 18.6962C6.52693 19.9191 8.5731 20.5001 12 20.5001C15.4269 20.5001 17.4731 19.9191 18.696 18.6962C19.919 17.4732 20.5 15.427 20.5 12.0001C20.5 8.57322 19.919 6.52705 18.696 5.30408C17.4731 4.0811 15.4269 3.50012 12 3.50012C8.5731 3.50012 6.52693 4.0811 5.30396 5.30408ZM4.24329 4.24342C5.91107 2.57564 8.4899 2.00012 12 2.00012C15.5101 2.00012 18.0889 2.57564 19.7567 4.24342C21.4245 5.91119 22 8.49002 22 12.0001C22 15.5102 21.4245 18.0891 19.7567 19.7568C18.0889 21.4246 15.5101 22.0001 12 22.0001C8.4899 22.0001 5.91107 21.4246 4.24329 19.7568C2.57552 18.0891 2 15.5102 2 12.0001C2 8.49002 2.57552 5.91119 4.24329 4.24342Z" fill="#9496A9"></path>
    <path fill-rule="evenodd" clip-rule="evenodd" d="M14.9934 12C14.9934 11.4477 15.4411 11 15.9934 11H16.0024C16.5547 11 17.0024 11.4477 17.0024 12C17.0024 12.5523 16.5547 13 16.0024 13H15.9934C15.4411 13 14.9934 12.5523 14.9934 12Z" fill="#9496A9"></path>
    <path fill-rule="evenodd" clip-rule="evenodd" d="M10.9944 12C10.9944 11.4477 11.4421 11 11.9944 11H12.0034C12.5557 11 13.0034 11.4477 13.0034 12C13.0034 12.5523 12.5557 13 12.0034 13H11.9944C11.4421 13 10.9944 12.5523 10.9944 12Z" fill="#9496A9"></path>
    <path fill-rule="evenodd" clip-rule="evenodd" d="M6.99561 12C6.99561 11.4477 7.44332 11 7.99561 11H8.00461C8.55689 11 9.00461 11.4477 9.00461 12C9.00461 12.5523 8.55689 13 8.00461 13H7.99561C7.44332 13 6.99561 12.5523 6.99561 12Z" fill="#9496A9"></path>
  </symbol>
  <symbol fill="none" xmlns="http://www.w3.org/2000/svg" viewBox="0 0 24 24" id="calendar">
    <path fill-rule="evenodd" clip-rule="evenodd" d="M5.30894 6.06044C4.08225 7.28702 3.49976 9.33915 3.49976 12.7756C3.49976 16.212 4.08225 18.2642 5.30894 19.4907C6.53564 20.7173 8.58779 21.2996 12.0238 21.2996C15.4602 21.2996 17.5126 20.7173 18.7395 19.4907C19.9663 18.2641 20.5488 16.212 20.5488 12.7756C20.5488 9.33915 19.9663 7.28704 18.7395 6.06046C17.5126 4.83385 15.4602 4.25159 12.0238 4.25159C8.58779 4.25159 6.53564 4.83384 5.30894 6.06044ZM4.24832 4.99973C5.91987 3.32833 8.50472 2.75159 12.0238 2.75159C15.5433 2.75159 18.1284 3.32832 19.8 4.99971C21.4718 6.67113 22.0488 9.25602 22.0488 12.7756C22.0488 16.2952 21.4718 18.88 19.8 20.5515C18.1284 22.2229 15.5433 22.7996 12.0238 22.7996C8.50472 22.7996 5.91987 22.2228 4.24832 20.5514C2.57676 18.88 1.99976 16.2952 1.99976 12.7756C1.99976 9.25602 2.57676 6.67115 4.24832 4.99973Z" fill="#9496A9"></path>
    <path fill-rule="evenodd" clip-rule="evenodd" d="M2.27515 9.32397C2.27515 8.90976 2.61093 8.57397 3.02515 8.57397H21.0331C21.4474 8.57397 21.7831 8.90976 21.7831 9.32397C21.7831 9.73819 21.4474 10.074 21.0331 10.074H3.02515C2.61093 10.074 2.27515 9.73819 2.27515 9.32397Z" fill="#9496A9"></path>
    <path fill-rule="evenodd" clip-rule="evenodd" d="M15.6785 13.261C15.6785 12.8468 16.0143 12.511 16.4285 12.511H16.4375C16.8517 12.511 17.1875 12.8468 17.1875 13.261C17.1875 13.6752 16.8517 14.011 16.4375 14.011H16.4285C16.0143 14.011 15.6785 13.6752 15.6785 13.261Z" fill="#9496A9"></path>
    <path fill-rule="evenodd" clip-rule="evenodd" d="M11.2791 13.261C11.2791 12.8468 11.6148 12.511 12.0291 12.511H12.0381C12.4523 12.511 12.7881 12.8468 12.7881 13.261C12.7881 13.6752 12.4523 14.011 12.0381 14.011H12.0291C11.6148 14.011 11.2791 13.6752 11.2791 13.261Z" fill="#9496A9"></path>
    <path fill-rule="evenodd" clip-rule="evenodd" d="M6.87134 13.261C6.87134 12.8468 7.20712 12.511 7.62134 12.511H7.63034C8.04455 12.511 8.38034 12.8468 8.38034 13.261C8.38034 13.6752 8.04455 14.011 7.63034 14.011H7.62134C7.20712 14.011 6.87134 13.6752 6.87134 13.261Z" fill="#9496A9"></path>
    <path fill-rule="evenodd" clip-rule="evenodd" d="M15.6785 17.1129C15.6785 16.6987 16.0143 16.3629 16.4285 16.3629H16.4375C16.8517 16.3629 17.1875 16.6987 17.1875 17.1129C17.1875 17.5271 16.8517 17.8629 16.4375 17.8629H16.4285C16.0143 17.8629 15.6785 17.5271 15.6785 17.1129Z" fill="#9496A9"></path>
    <path fill-rule="evenodd" clip-rule="evenodd" d="M11.2791 17.1129C11.2791 16.6987 11.6148 16.3629 12.0291 16.3629H12.0381C12.4523 16.3629 12.7881 16.6987 12.7881 17.1129C12.7881 17.5271 12.4523 17.8629 12.0381 17.8629H12.0291C11.6148 17.8629 11.2791 17.5271 11.2791 17.1129Z" fill="#9496A9"></path>
    <path fill-rule="evenodd" clip-rule="evenodd" d="M6.87134 17.1129C6.87134 16.6987 7.20712 16.3629 7.62134 16.3629H7.63034C8.04455 16.3629 8.38034 16.6987 8.38034 17.1129C8.38034 17.5271 8.04455 17.8629 7.63034 17.8629H7.62134C7.20712 17.8629 6.87134 17.5271 6.87134 17.1129Z" fill="#9496A9"></path>
    <path fill-rule="evenodd" clip-rule="evenodd" d="M16.033 1.30005C16.4472 1.30005 16.783 1.63584 16.783 2.05005V5.31205C16.783 5.72626 16.4472 6.06205 16.033 6.06205C15.6187 6.06205 15.283 5.72626 15.283 5.31205V2.05005C15.283 1.63584 15.6187 1.30005 16.033 1.30005Z" fill="#9496A9"></path>
    <path fill-rule="evenodd" clip-rule="evenodd" d="M8.02466 1.30005C8.43887 1.30005 8.77466 1.63584 8.77466 2.05005V5.31205C8.77466 5.72626 8.43887 6.06205 8.02466 6.06205C7.61044 6.06205 7.27466 5.72626 7.27466 5.31205V2.05005C7.27466 1.63584 7.61044 1.30005 8.02466 1.30005Z" fill="#9496A9"></path>
  </symbol>
    <symbol fill="none" xmlns="http://www.w3.org/2000/svg" viewBox="0 0 24 24" id="show">
    <path fill-rule="evenodd" clip-rule="evenodd" d="M12.0023 9.64014C10.6704 9.64014 9.59033 10.7195 9.59033 12.0521C9.59033 13.3839 10.6705 14.4641 12.0023 14.4641C13.3341 14.4641 14.4143 13.3839 14.4143 12.0521C14.4143 10.7195 13.3343 9.64014 12.0023 9.64014ZM8.09033 12.0521C8.09033 9.89077 9.84227 8.14014 12.0023 8.14014C14.1624 8.14014 15.9143 9.89077 15.9143 12.0521C15.9143 14.2124 14.1625 15.9641 12.0023 15.9641C9.84212 15.9641 8.09033 14.2124 8.09033 12.0521Z" fill="#9496A9"></path>
    <path fill-rule="evenodd" clip-rule="evenodd" d="M4.97577 6.59838C6.77017 5.0813 9.25098 4.00012 12.0022 4.00012C14.7529 4.00012 17.2337 5.08046 19.0282 6.59718C20.8033 8.09738 22.0042 10.1142 22.0042 12.0521C22.0042 13.9901 20.8033 16.0069 19.0282 17.5071C17.2337 19.0238 14.7529 20.1041 12.0022 20.1041C9.25098 20.1041 6.77017 19.0229 4.97577 17.5059C3.20099 16.0054 2.00024 13.9886 2.00024 12.0521C2.00024 10.1156 3.20099 8.09888 4.97577 6.59838ZM5.94422 7.74386C4.3705 9.07436 3.50024 10.7086 3.50024 12.0521C3.50024 13.3956 4.3705 15.0299 5.94422 16.3604C7.49832 17.6743 9.64351 18.6041 12.0022 18.6041C14.3606 18.6041 16.5058 17.675 18.06 16.3614C19.6337 15.0314 20.5042 13.3972 20.5042 12.0521C20.5042 10.7071 19.6337 9.07286 18.06 7.74282C16.5058 6.42929 14.3606 5.50012 12.0022 5.50012C9.64351 5.50012 7.49832 6.42994 5.94422 7.74386Z" fill="#9496A9"></path>
  </symbol>
    <symbol fill="none" xmlns="http://www.w3.org/2000/svg" viewBox="0 0 14 9" id="reply">
    <path d="M7 4.60396V2.45837C7 1.69858 6.1861 1.21634 5.51969 1.58128L1.50876 3.77774C0.835894 4.14621 0.811402 5.10384 1.46455 5.50623L5.47548 7.97725C6.14173 8.38771 7 7.9084 7 7.12585V4.60396ZM7 4.60396H12C12.5523 4.60396 13 5.05168 13 5.60396V8.91646" stroke="#6A6C87"></path>
  </symbol>
    <symbol fill="none" xmlns="http://www.w3.org/2000/svg" viewBox="0 0 14 15" id="sku">
    <g clip-path="url(#clip0_1236_17776)">
      <path d="M6 3.5H4C3.44772 3.5 3 3.94772 3 4.5V6.5C3 7.05228 3.44772 7.5 4 7.5H6C6.55228 7.5 7 7.05228 7 6.5V4.5C7 3.94772 6.55228 3.5 6 3.5Z" stroke="#9496A9" stroke-linecap="round" stroke-linejoin="round"></path>
      <path d="M3 1H1.5C1.23478 1 0.98043 1.10536 0.792893 1.29289C0.605357 1.48043 0.5 1.73478 0.5 2V3.5" stroke="#9496A9" stroke-linecap="round" stroke-linejoin="round"></path>
      <path d="M11 1H12.5C12.7652 1 13.0196 1.10536 13.2071 1.29289C13.3946 1.48043 13.5 1.73478 13.5 2V3.5" stroke="#9496A9" stroke-linecap="round" stroke-linejoin="round"></path>
      <path d="M3 14H1.5C1.23478 14 0.98043 13.8946 0.792893 13.7071C0.605357 13.5196 0.5 13.2652 0.5 13V11.5" stroke="#9496A9" stroke-linecap="round" stroke-linejoin="round"></path>
      <path d="M11 14H12.5C12.7652 14 13.0196 13.8946 13.2071 13.7071C13.3946 13.5196 13.5 13.2652 13.5 13V11.5" stroke="#9496A9" stroke-linecap="round" stroke-linejoin="round"></path>
      <path d="M3 10V11.5H4.5" stroke="#9496A9" stroke-linecap="round" stroke-linejoin="round"></path>
      <path d="M7 11.5V10H5.5" stroke="#9496A9" stroke-linecap="round" stroke-linejoin="round"></path>
      <path d="M11 5H9.5V3.5" stroke="#9496A9" stroke-linecap="round" stroke-linejoin="round"></path>
      <path d="M11 8.5V7H9.5" stroke="#9496A9" stroke-linecap="round" stroke-linejoin="round"></path>
      <path d="M9.5 10V11.5H11" stroke="#9496A9" stroke-linecap="round" stroke-linejoin="round"></path>
    </g>
    <defs>
      <clipPath id="clip0_1236_17776">
        <rect width="14" height="14" fill="white" transform="translate(0 0.5)"></rect>
      </clipPath>
    </defs>
  </symbol>
  <symbol fill="none" xmlns="http://www.w3.org/2000/svg" viewBox="0 0 14 14" id="grid">
    <g clip-path="url(#clip0_1236_817)">
      <path d="M2 3.5C2.82843 3.5 3.5 2.82843 3.5 2C3.5 1.17157 2.82843 0.5 2 0.5C1.17157 0.5 0.5 1.17157 0.5 2C0.5 2.82843 1.17157 3.5 2 3.5Z" stroke="white" stroke-linecap="round" stroke-linejoin="round"></path>
      <path d="M2 8.5C2.82843 8.5 3.5 7.82843 3.5 7C3.5 6.17157 2.82843 5.5 2 5.5C1.17157 5.5 0.5 6.17157 0.5 7C0.5 7.82843 1.17157 8.5 2 8.5Z" stroke="white" stroke-linecap="round" stroke-linejoin="round"></path>
      <path d="M7 3.5C7.82843 3.5 8.5 2.82843 8.5 2C8.5 1.17157 7.82843 0.5 7 0.5C6.17157 0.5 5.5 1.17157 5.5 2C5.5 2.82843 6.17157 3.5 7 3.5Z" stroke="white" stroke-linecap="round" stroke-linejoin="round"></path>
      <path d="M7 8.5C7.82843 8.5 8.5 7.82843 8.5 7C8.5 6.17157 7.82843 5.5 7 5.5C6.17157 5.5 5.5 6.17157 5.5 7C5.5 7.82843 6.17157 8.5 7 8.5Z" stroke="white" stroke-linecap="round" stroke-linejoin="round"></path>
      <path d="M7 13.5C7.82843 13.5 8.5 12.8284 8.5 12C8.5 11.1716 7.82843 10.5 7 10.5C6.17157 10.5 5.5 11.1716 5.5 12C5.5 12.8284 6.17157 13.5 7 13.5Z" stroke="white" stroke-linecap="round" stroke-linejoin="round"></path>
      <path d="M12 3.5C12.8284 3.5 13.5 2.82843 13.5 2C13.5 1.17157 12.8284 0.5 12 0.5C11.1716 0.5 10.5 1.17157 10.5 2C10.5 2.82843 11.1716 3.5 12 3.5Z" stroke="white" stroke-linecap="round" stroke-linejoin="round"></path>
      <path d="M12 8.5C12.8284 8.5 13.5 7.82843 13.5 7C13.5 6.17157 12.8284 5.5 12 5.5C11.1716 5.5 10.5 6.17157 10.5 7C10.5 7.82843 11.1716 8.5 12 8.5Z" stroke="white" stroke-linecap="round" stroke-linejoin="round"></path>
      <path d="M2 13.5C2.82843 13.5 3.5 12.8284 3.5 12C3.5 11.1716 2.82843 10.5 2 10.5C1.17157 10.5 0.5 11.1716 0.5 12C0.5 12.8284 1.17157 13.5 2 13.5Z" stroke="white" stroke-linecap="round" stroke-linejoin="round"></path>
      <path d="M12 13.5C12.8284 13.5 13.5 12.8284 13.5 12C13.5 11.1716 12.8284 10.5 12 10.5C11.1716 10.5 10.5 11.1716 10.5 12C10.5 12.8284 11.1716 13.5 12 13.5Z" stroke="white" stroke-linecap="round" stroke-linejoin="round"></path>
    </g>
    <defs>
      <clipPath id="clip0_1236_817">
        <rect width="14" height="14" fill="white"></rect>
      </clipPath>
    </defs>
  </symbol>
  <symbol fill="none" xmlns="http://www.w3.org/2000/svg" viewBox="0 0 14 14" id="hamberger">
    <path d="M13.5 2H0.5" stroke="white" stroke-linecap="round" stroke-linejoin="round"></path>
    <path d="M13.5 7H0.5" stroke="white" stroke-linecap="round" stroke-linejoin="round"></path>
    <path d="M13.5 12H0.5" stroke="white" stroke-linecap="round" stroke-linejoin="round"></path>
  </symbol>
    <symbol fill="none" xmlns="http://www.w3.org/2000/svg" viewBox="0 0 14 15" id="shopping_basket">
    <g clip-path="url(#clip0_1236_17882)">
      <path d="M12.28 6.49996H1.72001C1.57003 6.49692 1.42129 6.52767 1.2848 6.58992C1.14832 6.65217 1.02758 6.74433 0.931547 6.85957C0.835511 6.97481 0.766634 7.11019 0.730017 7.25566C0.693399 7.40114 0.689981 7.55299 0.720014 7.69996L1.82001 13.2C1.86677 13.4292 1.99244 13.6349 2.17516 13.781C2.35787 13.9272 2.58607 14.0047 2.82001 14H11.18C11.414 14.0047 11.6422 13.9272 11.8249 13.781C12.0076 13.6349 12.1333 13.4292 12.18 13.2L13.28 7.69996C13.31 7.55299 13.3066 7.40114 13.27 7.25566C13.2334 7.11019 13.1645 6.97481 13.0685 6.85957C12.9724 6.74433 12.8517 6.65217 12.7152 6.58992C12.5787 6.52767 12.43 6.49692 12.28 6.49996Z" stroke="#DDDDDD" stroke-linecap="round" stroke-linejoin="round"></path>
      <path d="M9 3L11 6.5" stroke="#DDDDDD" stroke-linecap="round" stroke-linejoin="round"></path>
      <path d="M3 6.5L5 3" stroke="#DDDDDD" stroke-linecap="round" stroke-linejoin="round"></path>
    </g>
    <defs>
      <clipPath id="clip0_1236_17882">
        <rect width="14" height="14" fill="white" transform="translate(0 0.5)"></rect>
      </clipPath>
    </defs>
  </symbol>
    <symbol xmlns="http://www.w3.org/2000/svg" id="heart" viewBox="0 0 24 24">
    <path d="M17.5,1.917a6.4,6.4,0,0,0-5.5,3.3,6.4,6.4,0,0,0-5.5-3.3A6.8,6.8,0,0,0,0,8.967c0,4.547,4.786,9.513,8.8,12.88a4.974,4.974,0,0,0,6.4,0C19.214,18.48,24,13.514,24,8.967A6.8,6.8,0,0,0,17.5,1.917Zm-3.585,18.4a2.973,2.973,0,0,1-3.83,0C4.947,16.006,2,11.87,2,8.967a4.8,4.8,0,0,1,4.5-5.05A4.8,4.8,0,0,1,11,8.967a1,1,0,0,0,2,0,4.8,4.8,0,0,1,4.5-5.05A4.8,4.8,0,0,1,22,8.967C22,11.87,19.053,16.006,13.915,20.313Z"></path>
  </symbol>
</svg>