<svg width="0" height="0" class="hidden">
  <symbol fill="none" xmlns="http://www.w3.org/2000/svg" viewBox="0 0 22 22" id="search">
    <path fill-rule="evenodd" clip-rule="evenodd" d="M10.2754 2.46436C5.96107 2.46436 2.46448 5.96095 2.46448 10.2753C2.46448 14.5897 5.96107 18.0863 10.2754 18.0863C14.5889 18.0863 18.0864 14.5896 18.0864 10.2753C18.0864 5.961 14.5889 2.46436 10.2754 2.46436ZM0.964478 10.2753C0.964478 5.13252 5.13264 0.964355 10.2754 0.964355C15.4172 0.964355 19.5864 5.13247 19.5864 10.2753C19.5864 15.4181 15.4172 19.5863 10.2754 19.5863C5.13264 19.5863 0.964478 15.4181 0.964478 10.2753Z" fill="#9E9FB1"></path>
    <path fill-rule="evenodd" clip-rule="evenodd" d="M18.899 18.2377C18.5338 18.2377 18.2375 18.5346 18.2375 18.8981C18.2375 19.2636 18.5338 19.5596 18.899 19.5596C19.2635 19.5596 19.5595 19.2643 19.5595 18.8981C19.5595 18.5339 19.2635 18.2377 18.899 18.2377ZM16.7375 18.8981C16.7375 17.7055 17.706 16.7377 18.899 16.7377C20.0926 16.7377 21.0595 17.7062 21.0595 18.8981C21.0595 20.092 20.0926 21.0596 18.899 21.0596C17.706 21.0596 16.7375 20.0927 16.7375 18.8981Z" fill="#9E9FB1"></path>
  </symbol>
  <symbol fill="none" xmlns="http://www.w3.org/2000/svg" viewBox="0 0 24 24" id="buy">
    <path d="M13.02 10.892H15.793C16.207 10.892 16.543 10.556 16.543 10.142C16.543 9.72803 16.207 9.39203 15.793 9.39203H13.02C12.605 9.39203 12.27 9.72803 12.27 10.142C12.27 10.556 12.605 10.892 13.02 10.892Z" fill="#8B5CF6"></path>
    <path fill-rule="evenodd" clip-rule="evenodd" d="M12.3318 17.8023C12.5808 17.8093 12.8358 17.8133 13.0978 17.8133C15.0608 17.8133 17.3148 17.5823 18.8778 16.3673C20.5978 15.0303 21.7528 11.8943 21.4518 9.37534C21.2518 7.69834 20.4158 6.44834 19.0988 5.85534C18.1458 5.42534 17.1168 5.45834 16.2108 5.48934L16.2018 5.48964C16.0269 5.49554 15.8539 5.50137 15.6828 5.50334C14.6048 5.51734 13.5258 5.55034 12.4468 5.58834C10.4218 5.6602 8.39777 5.75597 6.37274 5.85178L6.36084 5.85234L6.31684 5.85434C6.31784 5.70234 6.31684 5.55234 6.31384 5.40534C6.36784 3.35334 4.58184 2.54234 3.62984 2.40034C3.22584 2.33634 2.83884 2.62134 2.77684 3.03134C2.71684 3.44134 2.99884 3.82234 3.40884 3.88334C3.46784 3.89234 4.84784 4.11334 4.81384 5.40334C4.83484 6.27134 4.76084 7.25034 4.68184 8.28634L4.68172 8.28802C4.45275 11.3076 4.19326 14.7296 6.45384 16.3393C8.15084 17.5483 10.4868 17.7563 12.3318 17.8023ZM6.18563 8.2984C6.20999 7.97954 6.23396 7.66572 6.25384 7.35934L6.43284 7.35134C8.45484 7.25534 10.4778 7.15934 12.4998 7.08734C13.5668 7.04934 14.6358 7.01734 15.7018 7.00334C15.8819 7.0004 16.0639 6.99459 16.2478 6.98872L16.2598 6.98834L16.2781 6.98778C17.0864 6.96297 17.8516 6.93948 18.4828 7.22334C19.3258 7.60234 19.8228 8.38634 19.9628 9.55234C20.1988 11.5383 19.2628 14.1693 17.9578 15.1823C16.5458 16.2803 14.0948 16.3493 12.3698 16.3033C10.7378 16.2623 8.69084 16.0903 7.32484 15.1183C5.75284 13.9983 5.96884 11.1523 6.17784 8.40034L6.18563 8.2984Z" fill="#8B5CF6"></path>
    <path d="M5.98816 20.3129C5.98816 21.0269 6.56916 21.6079 7.28416 21.6079C7.99816 21.6079 8.57816 21.0269 8.57816 20.3129C8.57816 19.5999 7.99816 19.0189 7.28416 19.0189C6.56916 19.0189 5.98816 19.5999 5.98816 20.3129Z" fill="#8B5CF6"></path>
    <path d="M16.3203 20.3129C16.3203 21.0269 16.9013 21.6079 17.6153 21.6079C18.3293 21.6079 18.9103 21.0269 18.9103 20.3129C18.9103 19.5999 18.3293 19.0189 17.6153 19.0189C16.9013 19.0189 16.3203 19.5999 16.3203 20.3129Z" fill="#8B5CF6"></path>
  </symbol>
  <symbol fill="none" xmlns="http://www.w3.org/2000/svg" viewBox="0 0 24 24" id="heart">
    <path d="M17.6314 10.6995H17.6564C18.0584 10.6995 18.3914 10.3805 18.4054 9.97451C18.4644 8.22951 17.4234 6.94651 15.8154 6.78151C15.4114 6.74751 15.0354 7.03851 14.9924 7.45051C14.9504 7.86251 15.2504 8.23051 15.6624 8.27351C16.4734 8.35651 16.9384 8.97351 16.9064 9.92451C16.8924 10.3385 17.2174 10.6855 17.6314 10.6995Z" fill="#8B5CF6"></path>
    <path fill-rule="evenodd" clip-rule="evenodd" d="M2.15932 12.639C3.95332 18.223 9.94632 21.236 12.0023 21.236C14.0733 21.236 20.0863 18.222 21.8423 12.638C22.9923 9.04603 21.7173 4.35803 17.6513 3.04803C15.9193 2.49303 13.5463 2.69703 11.9803 4.29003C10.5293 2.89603 8.37332 2.39303 6.34232 3.04903C2.28032 4.35603 1.00732 9.04503 2.15832 12.638L2.15932 12.639ZM12.0023 19.736C10.8173 19.736 5.23432 17.306 3.58732 12.181C2.65632 9.27303 3.62032 5.50103 6.80232 4.47603C8.19332 4.02703 10.2253 4.27903 11.3943 5.89303C11.5393 6.09203 11.7713 6.19203 12.0183 6.20203C12.2643 6.19703 12.4923 6.07103 12.6283 5.86603C13.6943 4.24803 15.7423 4.01203 17.1923 4.47603C20.3773 5.50203 21.3433 9.27403 20.4123 12.184C18.8013 17.307 13.1963 19.736 12.0023 19.736Z" fill="#8B5CF6"></path>
  </symbol>
  <symbol fill="none" xmlns="http://www.w3.org/2000/svg" viewBox="0 0 24 24" id="profile">
    <path fill-rule="evenodd" clip-rule="evenodd" d="M11.9617 11.8921H11.9927C14.8247 11.8921 17.1287 9.58814 17.1287 6.75614C17.1287 3.92414 14.8247 1.61914 11.9927 1.61914C9.15975 1.61914 6.85575 3.92414 6.85575 6.75314C6.85075 8.12214 7.37975 9.41014 8.34375 10.3811C9.30675 11.3511 10.5917 11.8881 11.9617 11.8921ZM8.35575 6.75614C8.35575 4.75114 9.98775 3.11914 11.9927 3.11914C13.9977 3.11914 15.6287 4.75114 15.6287 6.75614C15.6287 8.76114 13.9977 10.3921 11.9927 10.3921H11.9647C10.9967 10.3901 10.0897 10.0101 9.40775 9.32314C8.72575 8.63714 8.35275 7.72614 8.35575 6.75614Z" fill="#8B5CF6"></path>
    <path fill-rule="evenodd" clip-rule="evenodd" d="M4.40552 18.7561C4.40552 22.3811 10.1215 22.3811 11.9995 22.3811C13.8775 22.3811 19.5945 22.3811 19.5945 18.7341C19.5945 15.9411 16.1165 13.5811 11.9995 13.5811C7.88352 13.5811 4.40552 15.9511 4.40552 18.7561ZM5.90552 18.7561C5.90552 17.0211 8.51152 15.0811 11.9995 15.0811C15.4885 15.0811 18.0945 17.0101 18.0945 18.7341C18.0945 20.1581 16.0435 20.8811 11.9995 20.8811C7.95652 20.8811 5.90552 20.1661 5.90552 18.7561Z" fill="#8B5CF6"></path>
  </symbol>
</svg>